<svg id="Layer_1" data-name="Layer 1" xmlns="http://www.w3.org/2000/svg" xmlns:xlink="http://www.w3.org/1999/xlink" viewBox="0 0 181.34 191.66">
  <defs>
    <style>
      .cls-1 {
        fill: #050018;
      }

      .cls-1, .cls-2, .cls-3, .cls-4, .cls-5, .cls-6, .cls-7, .cls-9 {
        stroke: #231f20;
        stroke-miterlimit: 10;
      }

      .cls-2 {
        fill: url(#radial-gradient);
      }

      .cls-3 {
        fill: #ec1e24;
      }

      .cls-4 {
        fill: none;
      }

      .cls-5 {
        fill: url(#radial-gradient-2);
      }

      .cls-6 {
        fill: url(#radial-gradient-3);
      }

      .cls-7 {
        fill: #0f0f26;
      }

      .cls-8 {
        fill: #f6a9b3;
      }

      .cls-9 {
        fill: #fff;
      }
    </style>
    <radialGradient id="radial-gradient" cx="90.38" cy="42.58" r="43.2" gradientUnits="userSpaceOnUse">
      <stop offset="0" stop-color="#312f30" stop-opacity="0.8"/>
      <stop offset="1"/>
    </radialGradient>
    <radialGradient id="radial-gradient-2" cx="306.17" cy="428.77" r="77.74" gradientUnits="userSpaceOnUse">
      <stop offset="0" stop-color="#29375f"/>
      <stop offset="1"/>
    </radialGradient>
    <radialGradient id="radial-gradient-3" cx="90.5" cy="74.62" r="20.21" xlink:href="#radial-gradient"/>
  </defs>
  <title>monster cat svg</title>
  <rect class="cls-1" x="153.84" y="4.91" width="27" height="100"/>
  <rect class="cls-1" x="0.5" y="5.24" width="27" height="97.33"/>
  <polygon class="cls-2" points="72.5 83.37 63.38 65.62 45.09 29.33 54.17 1.58 63.63 29.24 117.25 29.24 126.5 1.91 135.67 29.24 108.5 83.58 72.5 83.37"/>
  <rect class="cls-3" x="72.38" y="29.37" width="9.38" height="17.75"/>
  <rect class="cls-3" x="99.38" y="29.37" width="9.25" height="17.88"/>
  <path class="cls-4" d="M278.88,366.38" transform="translate(-215.5 -300.76)"/>
  <path class="cls-4" d="M333.38,365.88l-54.5.5Z" transform="translate(-215.5 -300.76)"/>
  <path class="cls-4" d="M333.38,365.88" transform="translate(-215.5 -300.76)"/>
  <path class="cls-5" d="M278.88,366.38l-18,17.63h-36L216,402s1,35.67,17.83,35.83L278,491.67h54.67L378,438s18-.33,18.33-36L387,383.33l-36.33.67-17.29-18.12Z" transform="translate(-215.5 -300.76)"/>
  <polygon class="cls-6" points="108.5 83.62 72.38 83.62 63.38 65.62 117.63 65.62 108.5 83.62"/>
  <polygon class="cls-7" points="27.34 83.41 80.84 191.16 90.34 191.16 36.09 83.91 27.34 83.41"/>
  <polygon class="cls-7" points="153.09 83.16 99.59 190.91 90.09 190.91 144.34 83.66 153.09 83.16"/>
  <ellipse class="cls-8" cx="78.94" cy="32.34" rx="1.06" ry="1.66"/>
  <ellipse class="cls-8" cx="105.94" cy="32.31" rx="1.06" ry="1.66"/>
  <ellipse class="cls-9" cx="13.67" cy="14.16" rx="3.17" ry="3.25"/>
  <ellipse class="cls-9" cx="13.17" cy="40.66" rx="3.17" ry="3.25"/>
  <ellipse class="cls-9" cx="13.67" cy="65.33" rx="3.17" ry="3.25"/>
  <ellipse class="cls-9" cx="167.17" cy="15.91" rx="3.17" ry="3.25"/>
  <ellipse class="cls-9" cx="166.67" cy="42.41" rx="3.17" ry="3.25"/>
  <ellipse class="cls-9" cx="167.17" cy="67.08" rx="3.17" ry="3.25"/>
</svg>
